# xmcd
#
# Track frame offsets:
#	150
#	16398
#	27009
#	39403
#	58534
#	74646
#	88783
#	103972
#	119579
#	128550
#	151109
#	164937
#	186614
#	199866
#	210460
#
# Disc length: 3097 seconds
#
# Revision: 1
# Processed by: cddbd v1.5.2PL0 Copyright (c) Steve Scherf et al.
# Submitted via: audiograbber 1.83.01
#
DISCID=db0c170f
DTITLE=Hallur Joensen - Pickin' time in Nashville
DYEAR=2008
DGENRE=Country
TTITLE0=Speed of the sound of loneliness
TTITLE1=Kiss An Angel Good Morning
TTITLE2=Darlin lets turn back the years
TTITLE3=Hello Josephine
TTITLE4=Give my love to Rose
TTITLE5=Here In My Heart
TTITLE6=My heart would know
TTITLE7=Someday you´ll call my name
TTITLE8=I Don't Care (Just as long as you love me)
TTITLE9=Heaven holds all my treasures
TTITLE10=Peach picking time down in Georgia
TTITLE11=Seven Spanish Angels
TTITLE12=Fraulein
TTITLE13=Kyss ein eingil hvønn morgun
TTITLE14=That´s Alright Mama
EXTD=
EXTT0=
EXTT1=
EXTT2=
EXTT3=
EXTT4=
EXTT5=
EXTT6=
EXTT7=
EXTT8=
EXTT9=
EXTT10=
EXTT11=
EXTT12=
EXTT13=
EXTT14=
PLAYORDER=
